<?xml version="1.0" encoding="UTF-8"?>
<svg version="1.1" xmlns="http://www.w3.org/2000/svg" width="500" height="500">
<path d="M0 0 C165 0 330 0 500 0 C500 165 500 330 500 500 C335 500 170 500 0 500 C0 335 0 170 0 0 Z " fill="#FEFEFE" transform="translate(0,0)"/>
<path d="M0 0 C8.52243753 6.14408287 8.85392254 17.98293694 10.44921875 27.59765625 C10.63097656 28.72042969 10.81273437 29.84320313 11 31 C7.19956554 32.73734147 5.40285423 33 1 33 C-0.65 25.74 -2.3 18.48 -4 11 C-5.65 11 -7.3 11 -9 11 C-10.30408759 12.09069279 -10.30408759 12.09069279 -10.25 14.75 C-10.21939591 19.65685558 -8.80527103 24.29650826 -7.55859375 29.01171875 C-7 32 -7 32 -8 36 C-12.455 36.495 -12.455 36.495 -17 37 C-18.65 29.74 -20.3 22.48 -22 15 C-23.65 15 -25.3 15 -27 15 C-28.37375369 16.15645826 -28.37375369 16.15645826 -28.25 19.3125 C-28.21459351 24.19859582 -26.95207666 28.67790799 -25.65625 33.36328125 C-25 36 -25 36 -25 39 C-28.61973402 40.31626692 -31.09567131 41 -35 41 C-40.76303063 18.19872014 -40.76303063 18.19872014 -41 9 C-36.3046875 6.921875 -36.3046875 6.921875 -33.5625 7.625 C-30.78620784 8.32488704 -30.78620784 8.32488704 -28.125 6.0625 C-24.36350396 3.57991262 -22.42575579 3.42629092 -18 4 C-15.5625 5.5 -15.5625 5.5 -14 7 C-13.690625 6.1028125 -13.690625 6.1028125 -13.375 5.1875 C-10.42940961 0.50133347 -5.26439687 -0.89606755 0 0 Z " fill="#282828" transform="translate(152,247)"/>
<path d="M0 0 C4.57757925 1.87264606 6.61302422 4.73754325 9 9 C10.43090504 14.76177762 11.4949665 21.63333545 9.0234375 27.19921875 C6.89322345 30.31612704 4.75587091 33.03420462 1 34 C-2.86290701 34.28265173 -6.28564095 34.23811968 -10 33 C-9.855625 33.67546875 -9.71125 34.3509375 -9.5625 35.046875 C-9.376875 35.93890625 -9.19125 36.8309375 -9 37.75 C-8.814375 38.63171875 -8.62875 39.5134375 -8.4375 40.421875 C-8 43 -8 43 -8 47 C-12.95 47.495 -12.95 47.495 -18 48 C-19.77761814 37.90161612 -21.35459304 27.79234654 -22.6875 17.625 C-22.81874268 16.63298584 -22.94998535 15.64097168 -23.08520508 14.61889648 C-23.20532959 13.68505127 -23.3254541 12.75120605 -23.44921875 11.7890625 C-23.55580811 10.96100098 -23.66239746 10.13293945 -23.7722168 9.27978516 C-24 7 -24 7 -24 3 C-20.52674819 1.8422494 -17.63932552 1.93133348 -14 2 C-14 2.66 -14 3.32 -14 4 C-13.175 3.34 -12.35 2.68 -11.5 2 C-7.54118525 -0.62985094 -4.68553223 -0.52061469 0 0 Z " fill="#F0F0F0" transform="translate(187,242)"/>
<path d="M0 0 C3.97282203 2.25905567 6.15635816 4.75021632 8.1875 8.8125 C8.88531911 16.24827738 8.72395629 22.65035119 4.1875 28.8125 C0.11586277 32.63737133 -4.00205265 33.16894385 -9.3984375 33.08984375 C-14.81203612 32.4678931 -18.56047434 30.0958263 -22.3125 26.25 C-24.71870655 20.73577665 -24.87664602 15.23256286 -23.08203125 9.46484375 C-18.42103535 -0.71324934 -10.26936978 -3.19865616 0 0 Z " fill="#F1F1F1" transform="translate(351.8125,249.1875)"/>
<path d="M0 0 C5.87808727 5.16559184 5.87808727 5.16559184 6.34375 9.32421875 C6.3726093 11.85301468 6.34639816 14.29930315 6.0625 16.8125 C5.0625 17.8125 5.0625 17.8125 3.20483398 17.92602539 C2.41407471 17.92078857 1.62331543 17.91555176 0.80859375 17.91015625 C-0.04541016 17.90693359 -0.89941406 17.90371094 -1.77929688 17.90039062 C-3.12604492 17.88782227 -3.12604492 17.88782227 -4.5 17.875 C-5.40169922 17.87048828 -6.30339844 17.86597656 -7.23242188 17.86132812 C-9.46751314 17.84950225 -11.70247437 17.8330222 -13.9375 17.8125 C-13.18036564 19.8226441 -13.18036564 19.8226441 -11.9375 21.8125 C-8.52083333 22.89583333 -8.52083333 22.89583333 -4.9375 22.8125 C-3.31235532 21.35416642 -3.31235532 21.35416642 -1.9375 19.8125 C1.54282201 20.07352415 3.11346298 20.84647532 6.0625 22.8125 C4.88441948 26.1654984 3.86843388 28.5677529 1.0625 30.8125 C-2.09759533 31.86586511 -4.4928136 32.01282888 -7.8125 32.0625 C-9.35550781 32.10117187 -9.35550781 32.10117187 -10.9296875 32.140625 C-16.15686849 31.57038707 -19.54870727 28.68540598 -22.9375 24.8125 C-24.03861689 21.50914934 -24.13976528 18.91417863 -24.1875 15.4375 C-24.21328125 14.31601563 -24.2390625 13.19453125 -24.265625 12.0390625 C-23.71919311 6.66581558 -20.92167009 3.29864883 -16.9375 -0.1875 C-11.52557433 -1.99147522 -5.31197995 -2.14739615 0 0 Z " fill="#F7F7F7" transform="translate(247.9375,240.1875)"/>
<path d="M0 0 C3.46941546 0.45822468 6.67395049 0.89131683 10 2 C10 2.66 10 3.32 10 4 C10.66386719 3.96519531 11.32773437 3.93039062 12.01171875 3.89453125 C20.99311316 3.61918923 20.99311316 3.61918923 25 7 C27.73811001 11.10716501 27.48511363 14.17734579 27 19 C26.21312614 22.59550152 25.13940748 26.06472433 24 29.5625 C23.57074219 30.93245117 23.57074219 30.93245117 23.1328125 32.33007812 C22.43325801 34.55699325 21.71823203 36.77903845 21 39 C18.03 38.34 15.06 37.68 12 37 C12.47519982 31.10752229 13.46783244 25.95543803 15.37890625 20.359375 C16.04840299 17.81612954 16.1067777 15.61837487 16 13 C13.69 13 11.38 13 9 13 C6.40189679 19.93706745 4.0623936 26.88474206 2 34 C-1.3 33.34 -4.6 32.68 -8 32 C-5.53195876 21.27452292 -2.90512869 10.61608198 0 0 Z " fill="#F2F2F2" transform="translate(368,254)"/>
<path d="M0 0 C3.91075925 1.98968453 5.57689098 3.36533646 8 7 C6.35 8.65 4.7 10.3 3 12 C2.2265625 11.566875 2.2265625 11.566875 1.4375 11.125 C-1.62356725 9.71219973 -4.74944918 8.8751483 -8 8 C-7.3252403 11.18436749 -7.3252403 11.18436749 -4.6015625 12.24609375 C-2.62257499 13.03820817 -0.6434092 13.82987732 1.3359375 14.62109375 C4.19325069 16.10002565 5.39495834 17.24316765 7 20 C7.59665151 23.92085277 7.15187534 25.70749935 5.3125 29.25 C2.8138126 32.22141204 1.73948833 33.15011629 -2 34 C-7.89806204 34.47565016 -11.67615525 33.86668564 -17 31 C-19.4375 28.8125 -19.4375 28.8125 -21 27 C-19.84826645 24.53199953 -18.95216435 22.95216435 -17 21 C-13.70285207 21.32971479 -12.3773161 21.6226839 -10 24 C-7.67724823 24.40047444 -5.34260643 24.7397104 -3 25 C-5.13207942 22.65537684 -7.05397038 21.35206315 -9.9375 20.0625 C-13.25557338 18.43707179 -15.86072531 17.11977558 -18 14 C-18.56510751 10.60935497 -18.76526398 8.26508584 -16.94140625 5.25 C-12.04177791 -0.7982059 -7.42010329 -0.77445366 0 0 Z " fill="#1F1F1F" transform="translate(303,241)"/>
<path d="M0 0 C3.56169096 1.27203249 5.36156805 1.98431281 7.375 5.1875 C7.58125 5.785625 7.7875 6.38375 8 7 C6.25 9.0625 6.25 9.0625 4 11 C2.1875 10.8125 2.1875 10.8125 0 10 C-2.33094534 9.6503582 -4.66404762 9.31445513 -7 9 C-7.33 9.66 -7.66 10.32 -8 11 C-7.26394531 11.15855469 -6.52789062 11.31710938 -5.76953125 11.48046875 C4.69268327 13.98200221 4.69268327 13.98200221 8 19 C8.54713453 22.8299417 8.33717027 25.175806 6.875 28.75 C4.04298313 32.14842025 1.25693628 33.66289841 -3.14453125 34.3203125 C-8.93229612 34.61610968 -12.31408768 33.37385687 -17 30 C-18.9375 27.75 -18.9375 27.75 -20 26 C-17.6875 23.5 -17.6875 23.5 -15 21 C-14.01 21 -13.02 21 -12 21 C-11.5875 21.474375 -11.175 21.94875 -10.75 22.4375 C-8.12475166 24.78147173 -5.41497058 24.67783296 -2 25 C-2 24.01 -2 23.02 -2 22 C-3.19625 21.7525 -4.3925 21.505 -5.625 21.25 C-9.69440649 20.23806944 -12.67029781 18.59879196 -16 16 C-17.60847182 12.78305636 -17.61309149 9.47862778 -17 6 C-11.92331044 -0.2790634 -7.6969151 -0.66108473 0 0 Z " fill="#1A1A1A" transform="translate(274,239)"/>
<path d="M0 0 C4.67732333 3.25680291 5.21695773 7.66644417 6.25 12.9375 C6.42273438 13.73607422 6.59546875 14.53464844 6.7734375 15.35742188 C7.59428403 19.28901618 8.22845013 22.96132799 8 27 C6.35 27 4.7 27 3 27 C2.85377197 26.39937744 2.70754395 25.79875488 2.55688477 25.17993164 C1.89574368 22.47321322 1.22919648 19.76785515 0.5625 17.0625 C0.33240234 16.11697266 0.10230469 15.17144531 -0.13476562 14.19726562 C-0.35712891 13.29814453 -0.57949219 12.39902344 -0.80859375 11.47265625 C-1.01282959 10.64000244 -1.21706543 9.80734863 -1.42749023 8.94946289 C-1.82696642 7.01329716 -1.82696642 7.01329716 -3 6 C-6.45821402 5.74996036 -6.45821402 5.74996036 -10 6 C-12.18543015 7.77797459 -12.18543015 7.77797459 -12.265625 10.06640625 C-12.23309392 15.26324679 -11.773755 19.96267215 -10.4375 24.9921875 C-10 27 -10 27 -10 31 C-11.65 31 -13.3 31 -15 31 C-17 24 -19 17 -21 10 C-24.69920857 9.03876714 -24.69920857 9.03876714 -28.3125 9.9375 C-30.42123263 12.51483988 -30.43012428 14.41337081 -30.2734375 17.6796875 C-29.87752656 21.03927459 -29.20364156 24.31212411 -28.4375 27.60546875 C-27.97807109 30.12002161 -27.9275176 32.44952551 -28 35 C-29.65 35 -31.3 35 -33 35 C-33.26554687 33.92621094 -33.53109375 32.85242188 -33.8046875 31.74609375 C-34.16139421 30.3098799 -34.51816866 28.87368288 -34.875 27.4375 C-35.04902344 26.73302734 -35.22304687 26.02855469 -35.40234375 25.30273438 C-36.24921172 21.89957975 -37.12885623 18.51900864 -38.125 15.15625 C-38.93095618 12.24905094 -39.18129611 9.99138583 -39 7 C-37.35 7 -35.7 7 -34 7 C-33.67 7.99 -33.34 8.98 -33 10 C-32.195625 9.195625 -31.39125 8.39125 -30.5625 7.5625 C-27 4 -27 4 -24.71484375 3.90234375 C-23.34005859 3.91974609 -23.34005859 3.91974609 -21.9375 3.9375 C-21.01839844 3.94652344 -20.09929687 3.95554688 -19.15234375 3.96484375 C-18.44207031 3.97644531 -17.73179687 3.98804688 -17 4 C-16.67 4.99 -16.34 5.98 -16 7 C-15.01 7 -14.02 7 -13 7 C-12.9175 6.401875 -12.835 5.80375 -12.75 5.1875 C-10.83825503 -0.38842283 -5.24038056 -1.29986002 0 0 Z " fill="#F4F4F4" transform="translate(152,250)"/>
<path d="M0 0 C1.27385494 4.10323485 2.54351839 8.20775564 3.8125 12.3125 C4.16892578 13.46041016 4.52535156 14.60832031 4.89257812 15.79101562 C11 35.57009748 11 35.57009748 11 41 C7.45648927 42.61989062 4.87280581 43.10414268 1 43 C-0.41013216 38.12655272 -1.81583385 33.25185711 -3.2175293 28.37597656 C-3.69451712 26.71905446 -4.1726923 25.06247368 -4.65209961 23.40625 C-5.34284441 21.01912779 -6.02924357 18.63079166 -6.71484375 16.2421875 C-6.92842026 15.50757294 -7.14199677 14.77295837 -7.36204529 14.01608276 C-8.50172135 10.02829185 -9.40850298 6.11500801 -10 2 C-3.375 0 -3.375 0 0 0 Z " fill="#F2F2F2" transform="translate(100,249)"/>
<path d="M0 0 C2.97 0 5.94 0 9 0 C9.33 0.66 9.66 1.32 10 2 C10.66 1.34 11.32 0.68 12 0 C15.01826653 -0.27240673 17.96370622 -0.08675125 21 0 C20.67 2.97 20.34 5.94 20 9 C18.2984375 9.2165625 18.2984375 9.2165625 16.5625 9.4375 C13.19222799 9.61171478 13.19222799 9.61171478 12 11 C11.84285346 12.63256758 11.74914586 14.27135338 11.68359375 15.91015625 C11.64169922 16.89951172 11.59980469 17.88886719 11.55664062 18.90820312 C11.51732422 19.94912109 11.47800781 20.99003906 11.4375 22.0625 C11.39431641 23.10728516 11.35113281 24.15207031 11.30664062 25.22851562 C11.20018895 27.81883972 11.09955692 30.40940175 11 33 C7.7 33 4.4 33 1 33 C0.23629361 21.98080785 -0.13379211 11.04528196 0 0 Z " fill="#353535" transform="translate(201,240)"/>
<path d="M0 0 C3.46941546 0.45822468 6.67395049 0.89131683 10 2 C10 2.66 10 3.32 10 4 C10.66386719 3.96519531 11.32773437 3.93039062 12.01171875 3.89453125 C20.99311316 3.61918923 20.99311316 3.61918923 25 7 C27.73811001 11.10716501 27.48511363 14.17734579 27 19 C26.21312614 22.59550152 25.13940748 26.06472433 24 29.5625 C23.57074219 30.93245117 23.57074219 30.93245117 23.1328125 32.33007812 C22.43325801 34.55699325 21.71823203 36.77903845 21 39 C18.03 38.34 15.06 37.68 12 37 C12.47519982 31.10752229 13.46783244 25.95543803 15.37890625 20.359375 C16.04840299 17.81612954 16.1067777 15.61837487 16 13 C13.69 13 11.38 13 9 13 C6.40189679 19.93706745 4.0623936 26.88474206 2 34 C-1.3 33.34 -4.6 32.68 -8 32 C-5.53195876 21.27452292 -2.90512869 10.61608198 0 0 Z M2 3 C-0.71861481 11.94445024 -3.38949895 20.77622123 -5 30 C-3.35 30.33 -1.7 30.66 0 31 C0.17015625 30.46632813 0.3403125 29.93265625 0.515625 29.3828125 C1.91693944 25.07451598 3.39633148 20.79988567 5 16.5625 C5.309375 15.73878906 5.61875 14.91507812 5.9375 14.06640625 C7 12 7 12 10 10 C12.95817184 10.30185427 15.33437658 10.66718829 18 12 C18.21267505 17.18395425 17.54093548 21.30616535 16 26.25 C14.47010527 31.04530937 14.47010527 31.04530937 14 36 C15.98 36 17.96 36 20 36 C20.84480235 33.14879208 21.67601416 30.29472656 22.5 27.4375 C22.73847656 26.63763672 22.97695313 25.83777344 23.22265625 25.01367188 C25.67928632 16.72005024 25.67928632 16.72005024 23.6875 8.625 C21.15683152 6.18805999 19.08391995 6.00621629 15.625 5.75 C11.81127485 6.01301553 10.04838638 6.78299172 7 9 C7 7.35 7 5.7 7 4 C5.35 3.67 3.7 3.34 2 3 Z " fill="#222222" transform="translate(368,254)"/>
<path d="M0 0 C3.3 0.33 6.6 0.66 10 1 C9.35873961 8.60173722 8.50058012 16.134036 7.4375 23.6875 C7.29892578 24.68716797 7.16035156 25.68683594 7.01757812 26.71679688 C6.6806713 29.14484953 6.34066807 31.57247221 6 34 C2.7 33.67 -0.6 33.34 -4 33 C-4.28144331 25.8231955 -3.19770859 19.06486215 -2 12 C-1.80921875 10.84371094 -1.6184375 9.68742188 -1.421875 8.49609375 C-0.95360579 5.66306504 -0.47950909 2.83114411 0 0 Z " fill="#2A2A2A" transform="translate(316,244)"/>
<path d="M0 0 C4.57757925 1.87264606 6.61302422 4.73754325 9 9 C10.43090504 14.76177762 11.4949665 21.63333545 9.0234375 27.19921875 C6.89322345 30.31612704 4.75587091 33.03420462 1 34 C-2.86290701 34.28265173 -6.28564095 34.23811968 -10 33 C-9.855625 33.67546875 -9.71125 34.3509375 -9.5625 35.046875 C-9.376875 35.93890625 -9.19125 36.8309375 -9 37.75 C-8.814375 38.63171875 -8.62875 39.5134375 -8.4375 40.421875 C-8 43 -8 43 -8 47 C-12.95 47.495 -12.95 47.495 -18 48 C-19.77761814 37.90161612 -21.35459304 27.79234654 -22.6875 17.625 C-22.81874268 16.63298584 -22.94998535 15.64097168 -23.08520508 14.61889648 C-23.20532959 13.68505127 -23.3254541 12.75120605 -23.44921875 11.7890625 C-23.55580811 10.96100098 -23.66239746 10.13293945 -23.7722168 9.27978516 C-24 7 -24 7 -24 3 C-20.52674819 1.8422494 -17.63932552 1.93133348 -14 2 C-14 2.66 -14 3.32 -14 4 C-13.175 3.34 -12.35 2.68 -11.5 2 C-7.54118525 -0.62985094 -4.68553223 -0.52061469 0 0 Z M-13 7 C-13.99 7.33 -14.98 7.66 -16 8 C-16 7.01 -16 6.02 -16 5 C-17.65 5 -19.3 5 -21 5 C-20.51367718 13.58611317 -19.55694443 22.09308491 -18.5 30.625 C-18.36940186 31.69234375 -18.23880371 32.7596875 -18.10424805 33.859375 C-17.97703369 34.86742187 -17.84981934 35.87546875 -17.71875 36.9140625 C-17.60466797 37.8210791 -17.49058594 38.7280957 -17.37304688 39.66259766 C-17.04168625 42.14620639 -17.04168625 42.14620639 -16 45 C-14.35 45 -12.7 45 -11 45 C-10.88861841 39.54230189 -11.08342019 34.38490641 -12 29 C-11.360625 29.515625 -10.72125 30.03125 -10.0625 30.5625 C-5.80237194 32.56215195 -2.50261416 32.08771016 2 31 C5.10526637 29.48717792 5.79319388 28.44463315 7.25 25.3125 C8.80211512 18.45732489 8.61637391 12.14511657 5 6 C1.76656269 3.06051154 -0.25266868 2.11799968 -4.5625 1.4375 C-8.88580913 2.14495058 -10.16273399 3.76866927 -13 7 Z " fill="#131313" transform="translate(187,242)"/>
<path d="M0 0 C-0.33 0.99 -0.66 1.98 -1 3 C-5.29 2.34 -9.58 1.68 -14 1 C-14 2.98 -14 4.96 -14 7 C-13.16855469 7.32613281 -12.33710938 7.65226563 -11.48046875 7.98828125 C-10.39378906 8.42527344 -9.30710937 8.86226562 -8.1875 9.3125 C-7.10855469 9.74175781 -6.02960938 10.17101562 -4.91796875 10.61328125 C-2.28411022 11.86498109 -0.74013097 12.70160175 1 15 C1.5 17.875 1.5 17.875 1 21 C-2.39107297 25.0157443 -4.37655511 26.86004785 -9.625 27.3125 C-14.4295586 27.28610133 -17.9419456 25.41756432 -22 23 C-21.34 21.68 -20.68 20.36 -20 19 C-19.360625 19.33 -18.72125 19.66 -18.0625 20 C-13.98763159 21.33056928 -10.24809575 21.16659199 -6 21 C-6 19.35 -6 17.7 -6 16 C-6.84304688 15.66226562 -7.68609375 15.32453125 -8.5546875 14.9765625 C-9.65039062 14.53054688 -10.74609375 14.08453125 -11.875 13.625 C-12.96554687 13.18414062 -14.05609375 12.74328125 -15.1796875 12.2890625 C-18 11 -18 11 -20 9 C-20.33632436 5.36769692 -20.46793185 2.88907051 -18.75 -0.375 C-13.5934973 -5.16318108 -5.24804107 -3.9360308 0 0 Z " fill="#ECECEC" transform="translate(279,244)"/>
<path d="M0 0 C3.33060224 0.6032789 6.04781163 1.86374956 9.0703125 3.375 C9.0703125 4.365 9.0703125 5.355 9.0703125 6.375 C6.05177455 6.375 3.29950171 6.22549285 0.3203125 5.875 C-0.47890625 5.7821875 -1.278125 5.689375 -2.1015625 5.59375 C-2.70484375 5.5215625 -3.308125 5.449375 -3.9296875 5.375 C-4.2596875 6.695 -4.5896875 8.015 -4.9296875 9.375 C-1.25895269 11.66920926 2.50867543 13.62142413 6.3984375 15.5078125 C8.0703125 16.375 8.0703125 16.375 9.0703125 17.375 C9.56294753 20.44929202 9.6226819 23.30747286 9.0703125 26.375 C5.99928472 29.52280347 3.37507239 30.59726201 -0.9296875 30.8125 C-4.81741213 30.5965153 -7.65948499 29.55513501 -10.9296875 27.375 C-12.3046875 25.1875 -12.3046875 25.1875 -12.9296875 23.375 C-11.2421875 22.6875 -11.2421875 22.6875 -8.9296875 22.375 C-8.1665625 22.87 -7.4034375 23.365 -6.6171875 23.875 C-3.03751892 25.87295455 -0.84528559 25.21954076 3.0703125 24.375 C2.94931927 21.95084509 2.94931927 21.95084509 2.0703125 19.375 C-0.10997255 17.79657672 -0.10997255 17.79657672 -2.8046875 16.75 C-8.70652116 14.18622969 -8.70652116 14.18622969 -10.9296875 11.375 C-11.62552563 7.37393076 -11.26432107 5.85603575 -8.9296875 2.5 C-5.76079003 0.25536429 -3.86982888 -0.23542685 0 0 Z " fill="#EFEFEF" transform="translate(297.9296875,242.625)"/>
<path d="M0 0 C5.87808727 5.16559184 5.87808727 5.16559184 6.34375 9.32421875 C6.3726093 11.85301468 6.34639816 14.29930315 6.0625 16.8125 C5.0625 17.8125 5.0625 17.8125 3.20483398 17.92602539 C2.41407471 17.92078857 1.62331543 17.91555176 0.80859375 17.91015625 C-0.04541016 17.90693359 -0.89941406 17.90371094 -1.77929688 17.90039062 C-3.12604492 17.88782227 -3.12604492 17.88782227 -4.5 17.875 C-5.40169922 17.87048828 -6.30339844 17.86597656 -7.23242188 17.86132812 C-9.46751314 17.84950225 -11.70247437 17.8330222 -13.9375 17.8125 C-13.18036564 19.8226441 -13.18036564 19.8226441 -11.9375 21.8125 C-8.52083333 22.89583333 -8.52083333 22.89583333 -4.9375 22.8125 C-3.31235532 21.35416642 -3.31235532 21.35416642 -1.9375 19.8125 C1.54282201 20.07352415 3.11346298 20.84647532 6.0625 22.8125 C4.88441948 26.1654984 3.86843388 28.5677529 1.0625 30.8125 C-2.09759533 31.86586511 -4.4928136 32.01282888 -7.8125 32.0625 C-9.35550781 32.10117187 -9.35550781 32.10117187 -10.9296875 32.140625 C-16.15686849 31.57038707 -19.54870727 28.68540598 -22.9375 24.8125 C-24.03861689 21.50914934 -24.13976528 18.91417863 -24.1875 15.4375 C-24.21328125 14.31601563 -24.2390625 13.19453125 -24.265625 12.0390625 C-23.71919311 6.66581558 -20.92167009 3.29864883 -16.9375 -0.1875 C-11.52557433 -1.99147522 -5.31197995 -2.14739615 0 0 Z M-20.9375 6.8125 C-22.74147522 12.22442567 -22.89739615 18.43802005 -20.75 23.75 C-20.151875 24.430625 -19.55375 25.11125 -18.9375 25.8125 C-18.2775 26.575625 -17.6175 27.33875 -16.9375 28.125 C-12.37514882 30.69132254 -8.05456569 30.4492563 -2.9375 29.8125 C0.23040544 28.80555937 0.23040544 28.80555937 2.0625 26.8125 C2.0625 25.4925 2.0625 24.1725 2.0625 22.8125 C1.0725 22.4825 0.0825 22.1525 -0.9375 21.8125 C-1.68 22.3075 -2.4225 22.8025 -3.1875 23.3125 C-5.9375 24.8125 -5.9375 24.8125 -9.5 25 C-12.9375 23.8125 -12.9375 23.8125 -16.9375 15.8125 C-10.0075 15.8125 -3.0775 15.8125 4.0625 15.8125 C4.14514423 8.63455532 4.14514423 8.63455532 1.0625 2.8125 C-6.54146053 -2.05069234 -15.57078983 -0.12371974 -20.9375 6.8125 Z " fill="#191919" transform="translate(247.9375,240.1875)"/>
<path d="M0 0 C1.65 0 3.3 0 5 0 C5 0.99 5 1.98 5 3 C6.32 3.66 7.64 4.32 9 5 C8.67 5.66 8.34 6.32 8 7 C7.6246995 12.62950743 7.88929359 16.09465528 11 21 C11.66 21.33 12.32 21.66 13 22 C12.67 22.99 12.34 23.98 12 25 C11.01 24.67 10.02 24.34 9 24 C9.165 24.969375 9.33 25.93875 9.5 26.9375 C10.13396273 31.29487763 10.0896672 35.60630704 10 40 C8.35 40 6.7 40 5 40 C3.5019774 32.23681999 2.33740896 24.47157921 1.375 16.625 C1.2409375 15.57183594 1.106875 14.51867187 0.96875 13.43359375 C0.84242188 12.41652344 0.71609375 11.39945312 0.5859375 10.3515625 C0.4729834 9.44229004 0.3600293 8.53301758 0.24365234 7.59619141 C0.00438147 5.04668594 -0.04327464 2.55897395 0 0 Z " fill="#F3F3F3" transform="translate(166,247)"/>
<path d="M0 0 C2.99283581 4.33445186 3.31100973 7.81650457 3 13 C-0.63 13 -4.26 13 -8 13 C-8 12.34 -8 11.68 -8 11 C-11.3 11 -14.6 11 -18 11 C-17.43063957 7.01447701 -16.65972035 4.07530165 -14 1 C-9.66835244 -0.69753756 -4.34270509 -2.04362592 0 0 Z " fill="#E3E3E3" transform="translate(249,243)"/>
<path d="M0 0 C3.97282203 2.25905567 6.15635816 4.75021632 8.1875 8.8125 C8.88531911 16.24827738 8.72395629 22.65035119 4.1875 28.8125 C0.11586277 32.63737133 -4.00205265 33.16894385 -9.3984375 33.08984375 C-14.81203612 32.4678931 -18.56047434 30.0958263 -22.3125 26.25 C-24.71870655 20.73577665 -24.87664602 15.23256286 -23.08203125 9.46484375 C-18.42103535 -0.71324934 -10.26936978 -3.19865616 0 0 Z M-17.8125 4.8125 C-21.5094556 9.98594871 -22.53196962 14.54283613 -21.8125 20.8125 C-19.78161189 25.5156093 -16.37671761 28.53039119 -11.8125 30.8125 C-7.20049786 31.37516426 -3.68515291 31.21650598 0.5625 29.25 C5.18756992 24.95529222 6.34004491 20.86274637 6.625 14.75 C6.45362799 10.05155062 5.50625729 7.30144997 2.1875 3.8125 C-5.08439072 -0.30366456 -11.37060746 -0.9136267 -17.8125 4.8125 Z " fill="#242424" transform="translate(351.8125,249.1875)"/>
<path d="M0 0 C1.27385494 4.10323485 2.54351839 8.20775564 3.8125 12.3125 C4.16892578 13.46041016 4.52535156 14.60832031 4.89257812 15.79101562 C11 35.57009748 11 35.57009748 11 41 C7.45648927 42.61989062 4.87280581 43.10414268 1 43 C-0.41013216 38.12655272 -1.81583385 33.25185711 -3.2175293 28.37597656 C-3.69451712 26.71905446 -4.1726923 25.06247368 -4.65209961 23.40625 C-5.34284441 21.01912779 -6.02924357 18.63079166 -6.71484375 16.2421875 C-6.92842026 15.50757294 -7.14199677 14.77295837 -7.36204529 14.01608276 C-8.50172135 10.02829185 -9.40850298 6.11500801 -10 2 C-3.375 0 -3.375 0 0 0 Z M-7 4 C-5.57578592 12.23381194 -3.29583913 20.13537547 -0.875 28.125 C-0.31619141 29.98898437 -0.31619141 29.98898437 0.25390625 31.890625 C1.16521724 34.92832829 2.08066287 37.96471808 3 41 C5.97 40.505 5.97 40.505 9 40 C7.38267423 32.22342842 5.28009284 24.62526419 3.0625 17 C2.71509766 15.76121094 2.36769531 14.52242188 2.00976562 13.24609375 C1.66751953 12.07175781 1.32527344 10.89742188 0.97265625 9.6875 C0.66593994 8.61886719 0.35922363 7.55023438 0.04321289 6.44921875 C-0.30104736 5.64097656 -0.64530762 4.83273438 -1 4 C-4 2.66666667 -4 2.66666667 -7 4 Z " fill="#1F1F1F" transform="translate(100,249)"/>
<path d="M0 0 C1.2065625 0.0309375 1.2065625 0.0309375 2.4375 0.0625 C2.4375 1.7125 2.4375 3.3625 2.4375 5.0625 C0.766875 5.4646875 0.766875 5.4646875 -0.9375 5.875 C-4.78090951 6.72059019 -4.78090951 6.72059019 -6.5625 10.0625 C-6.83691372 12.1895431 -6.83691372 12.1895431 -6.7578125 14.51171875 C-6.75136719 15.35927734 -6.74492187 16.20683594 -6.73828125 17.08007812 C-6.71314453 18.40168945 -6.71314453 18.40168945 -6.6875 19.75 C-6.67396484 21.08901367 -6.67396484 21.08901367 -6.66015625 22.45507812 C-6.63659748 24.65782314 -6.60370329 26.86002588 -6.5625 29.0625 C-8.5425 29.0625 -10.5225 29.0625 -12.5625 29.0625 C-12.8925 19.8225 -13.2225 10.5825 -13.5625 1.0625 C-11.9125 1.0625 -10.2625 1.0625 -8.5625 1.0625 C-8.5625 2.3825 -8.5625 3.7025 -8.5625 5.0625 C-7.5725 5.0625 -6.5825 5.0625 -5.5625 5.0625 C-5.253125 4.423125 -4.94375 3.78375 -4.625 3.125 C-3.05351796 0.07447605 -3.05351796 0.07447605 0 0 Z " fill="#F5F5F5" transform="translate(216.5625,241.9375)"/>
<path d="M0 0 C0.33 0 0.66 0 1 0 C1.185625 1.2375 1.37125 2.475 1.5625 3.75 C2.17885033 6.22414388 2.5835026 7.61976755 4.48046875 9.3515625 C8.11171914 11.45175588 11.97719724 12.82259432 16 14 C16 14.99 16 15.98 16 17 C9.375 17.25 9.375 17.25 6 15 C6 14.34 6 13.68 6 13 C3.28775382 14.61268692 0.62647188 16.24901874 -2 18 C-2.391875 17.525625 -2.78375 17.05125 -3.1875 16.5625 C-5.47931185 14.58680013 -6.98928361 14.15053582 -10 14 C-10.45375 14.495 -10.9075 14.99 -11.375 15.5 C-11.91125 15.995 -12.4475 16.49 -13 17 C-19.33333333 16.66666667 -19.33333333 16.66666667 -22 14 C-22 13.01 -22 12.02 -22 11 C-15.73 10.67 -9.46 10.34 -3 10 C-2.01 6.7 -1.02 3.4 0 0 Z " fill="#F4F4F4" transform="translate(256,247)"/>
<path d="M0 0 C0.66 0.33 1.32 0.66 2 1 C1.54625 1.598125 1.0925 2.19625 0.625 2.8125 C-2.79877497 7.42142785 -3.49427212 10.35389158 -3 16 C-2.54937415 18.5561363 -2.0255782 21.07754928 -1.4375 23.60546875 C-0.97807109 26.12002161 -0.9275176 28.44952551 -1 31 C-2.65 31 -4.3 31 -6 31 C-6.26554687 29.92621094 -6.53109375 28.85242188 -6.8046875 27.74609375 C-7.16139421 26.3098799 -7.51816866 24.87368288 -7.875 23.4375 C-8.04902344 22.73302734 -8.22304687 22.02855469 -8.40234375 21.30273438 C-9.24921172 17.89957975 -10.12885623 14.51900864 -11.125 11.15625 C-11.93095618 8.24905094 -12.18129611 5.99138583 -12 3 C-10.35 3 -8.7 3 -7 3 C-6.67 3.99 -6.34 4.98 -6 6 C-5.195625 5.195625 -4.39125 4.39125 -3.5625 3.5625 C-2.375 2.375 -1.1875 1.1875 0 0 Z " fill="#F1F1F1" transform="translate(125,254)"/>
<path d="M0 0 C6.39911635 0.34904271 6.39911635 0.34904271 8.5 2.625 C9.39842721 6.89252926 8.70942857 10.54380451 6.8125 14.4375 C5 16 5 16 2 16.4375 C-1 16 -1 16 -2.875 14.9375 C-4.6533399 11.87480351 -4.35888593 9.46923068 -4 6 C-2.84360194 3.68720389 -1.82590172 1.82590172 0 0 Z " fill="#F3F3F3" transform="translate(342,257)"/>
<path d="M0 0 C2.43280618 3.75979138 2.47722998 7.62539181 2 12 C0.3125 14.5 0.3125 14.5 -2 16 C-5.39154295 15.83849795 -6.58296757 15.41703243 -9 13 C-10.33585492 9.39319171 -10.34533446 5.79867904 -10 2 C-7.04868511 -1.63238756 -4.25905237 -1.48140952 0 0 Z " fill="#F4F4F4" transform="translate(185,252)"/>
<path d="M0 0 C1.65 0.33 3.3 0.66 5 1 C4.45462284 10.44363607 3.46291615 19.65438032 2 29 C0.35 28.67 -1.3 28.34 -3 28 C-3.4633257 18.42460227 -1.71635669 9.37866335 0 0 Z " fill="#F2F2F2" transform="translate(318,246)"/>
<path d="M0 0 C8.52243753 6.14408287 8.85392254 17.98293694 10.44921875 27.59765625 C10.63097656 28.72042969 10.81273437 29.84320313 11 31 C8.69 31.66 6.38 32.32 4 33 C3.34 32.34 2.68 31.68 2 31 C2.375 28.875 2.375 28.875 3 27 C3 27.99 3 28.98 3 30 C4.65 30 6.3 30 8 30 C7.24755176 26.2252552 6.46992352 22.45613591 5.6875 18.6875 C5.47416016 17.61564453 5.26082031 16.54378906 5.04101562 15.43945312 C4.82509766 14.41142578 4.60917969 13.38339844 4.38671875 12.32421875 C4.19295654 11.37635498 3.99919434 10.42849121 3.79956055 9.4519043 C2.9305672 6.78707981 2.267617 5.62706607 0 4 C-5.46165163 3.46208446 -5.46165163 3.46208446 -10.4375 5.3125 C-12.23686957 7.02309613 -12.23686957 7.02309613 -13 10 C-13.99 10 -14.98 10 -16 10 C-16.45375 9.525625 -16.9075 9.05125 -17.375 8.5625 C-19.46366683 6.55416651 -21.1783448 6.38130476 -24 6 C-24 5.67 -24 5.34 -24 5 C-17.375 4.75 -17.375 4.75 -14 7 C-13.79375 6.401875 -13.5875 5.80375 -13.375 5.1875 C-10.42940961 0.50133347 -5.26439687 -0.89606755 0 0 Z " fill="#333333" transform="translate(152,247)"/>
<path d="M0 0 C2.97 0.33 5.94 0.66 9 1 C8.67 2.32 8.34 3.64 8 5 C8 4.01 8 3.02 8 2 C6.35 2 4.7 2 3 2 C3.15146484 3.10512939 3.30292969 4.21025879 3.45898438 5.34887695 C4.02008517 9.44674735 4.57855604 13.54497257 5.13623047 17.64331055 C5.37802486 19.41749718 5.62053364 21.1915866 5.86376953 22.96557617 C6.21314062 25.51455915 6.55994636 28.06387995 6.90625 30.61328125 C7.0156189 31.40712723 7.12498779 32.20097321 7.2376709 33.01887512 C7.6457372 36.0376421 8 38.94981194 8 42 C9.65 42 11.3 42 13 42 C13.33 38.7 13.66 35.4 14 32 C14.33 32 14.66 32 15 32 C15.33 35.96 15.66 39.92 16 44 C11.05 44.495 11.05 44.495 6 45 C4.22238186 34.90161612 2.64540696 24.79234654 1.3125 14.625 C1.18125732 13.63298584 1.05001465 12.64097168 0.91479492 11.61889648 C0.79467041 10.68505127 0.6745459 9.75120605 0.55078125 8.7890625 C0.44419189 7.96100098 0.33760254 7.13293945 0.2277832 6.27978516 C0 4 0 4 0 0 Z " fill="#191919" transform="translate(163,245)"/>
<path d="M0 0 C2.97 0.33 5.94 0.66 9 1 C9 1.66 9 2.32 9 3 C9.66386719 2.96519531 10.32773437 2.93039062 11.01171875 2.89453125 C19.99311316 2.61918923 19.99311316 2.61918923 24 6 C26.73811001 10.10716501 26.48511363 13.17734579 26 18 C25.21312614 21.59550152 24.13940748 25.06472433 23 28.5625 C22.57074219 29.93245117 22.57074219 29.93245117 22.1328125 31.33007812 C21.43317728 33.55725024 20.72216334 35.78005196 20 38 C18.68 37.67 17.36 37.34 16 37 C17.485 36.505 17.485 36.505 19 36 C19.103125 34.906875 19.20625 33.81375 19.3125 32.6875 C19.73979997 29.14342377 20.55981981 25.86174744 21.5625 22.4375 C22.80048911 18.0620581 23.47176297 14.52892447 23 10 C21.27773504 6.75150023 21.27773504 6.75150023 18 6 C13.43812214 5.74656234 10.12848928 5.99830823 6 8 C5.9071875 6.824375 5.9071875 6.824375 5.8125 5.625 C5.544375 4.75875 5.27625 3.8925 5 3 C2.52363988 1.62533375 2.52363988 1.62533375 0 1 C0 0.67 0 0.34 0 0 Z " fill="#171717" transform="translate(369,255)"/>
<path d="M0 0 C1.32 0.66 2.64 1.32 4 2 C4.66 1.34 5.32 0.68 6 0 C6.3125 2.6875 6.3125 2.6875 6 6 C2.60892703 10.0157443 0.62344489 11.86004785 -4.625 12.3125 C-9.4295586 12.28610133 -12.9419456 10.41756432 -17 8 C-16.34 6.68 -15.68 5.36 -15 4 C-14.360625 4.33 -13.72125 4.66 -13.0625 5 C-8.98763159 6.33056928 -5.24809575 6.16659199 -1 6 C-0.67 4.02 -0.34 2.04 0 0 Z " fill="#EAEAEA" transform="translate(274,259)"/>
<path d="M0 0 C3.55484581 0.68071515 4.714546 1.76322459 6.9375 4.5625 C8.66653538 8.02057076 8.2842026 11.77493766 7.9375 15.5625 C6.875 18.5625 6.875 18.5625 4.9375 20.5625 C1.5625 21.6875 1.5625 21.6875 -2.0625 21.5625 C-5.26332983 19.05750274 -6.7752358 17.4242926 -8.0625 13.5625 C-8.74363523 6.52410267 -8.74363523 6.52410267 -5.9375 2.5625 C-3.0625 0.5625 -3.0625 0.5625 0 0 Z M-4.4375 3.5625 C-6.37196194 5.57488741 -6.37196194 5.57488741 -6.4375 8.9375 C-6.08938872 12.30257574 -5.66724372 14.60639315 -4.0625 17.5625 C-1.30551816 19.84388945 -1.30551816 19.84388945 1.5 19.375 C4.27005117 18.72877558 4.27005117 18.72877558 5.9375 15.5625 C6.26284157 11.17038886 6.37977207 7.33692047 3.9375 3.5625 C0.60859917 2.40462145 -1.17145578 2.18732349 -4.4375 3.5625 Z " fill="#1C1C1C" transform="translate(181.0625,248.4375)"/>
<path d="M0 0 C1.99609375 0.05078125 1.99609375 0.05078125 4.4375 0.3125 C5.64212891 0.43044922 5.64212891 0.43044922 6.87109375 0.55078125 C9 1 9 1 11 3 C11.60854179 7.90785004 11.66166837 12.52628408 9.625 17.0625 C8 19 8 19 6 21 C1.41917361 20.74550964 -1.67365915 20.22554265 -5 17 C-5.92754925 13.03745505 -5.79756695 8.7882667 -4.12890625 5.046875 C-2.9122537 3.21075467 -1.55925676 1.55925676 0 0 Z M-0.875 3.25 C-3.32447999 7.0603022 -3.31513231 10.58814762 -3 15 C-2.01951062 17.06402685 -2.01951062 17.06402685 0 18 C3 18.58333333 3 18.58333333 6 18 C8.65180822 15.71395843 9.01744025 13.92487276 9.8125 10.5 C10.14198426 7.16770826 10.14198426 7.16770826 9.5 4.625 C7.95280118 2.66062294 7.95280118 2.66062294 4.5625 2.0625 C1.11858541 1.664008 1.11858541 1.664008 -0.875 3.25 Z " fill="#191919" transform="translate(341,255)"/>
<path d="M0 0 C0.99 0.33 1.98 0.66 3 1 C3 10.57 3 20.14 3 30 C4.98 30 6.96 30 9 30 C9 24.72 9 19.44 9 14 C9.33 14 9.66 14 10 14 C11.0712828 20.02596573 11.09945415 25.88909517 11 32 C7.7 32 4.4 32 1 32 C0.26740918 21.3120232 -0.14036598 10.71460306 0 0 Z " fill="#222222" transform="translate(201,241)"/>
<path d="M0 0 C3.87273166 1.46896718 5.16877405 3.33754811 7 7 C8.00749453 13.58048228 7.54102408 19.66047312 4.14453125 25.4453125 C1.8292074 28.59035992 -0.34569513 29.78189838 -4 31 C-9.78486795 31.5729774 -13.93572769 31.11647527 -19 28 C-15.25 26.875 -15.25 26.875 -13 28 C-8.81103254 28.42794952 -5.09255875 28.40377171 -1.125 26.9375 C2.48074449 23.64990943 3.70965842 20.23775464 4.3203125 15.53125 C4.58769201 9.61325011 3.67555597 6.59444496 0 2 C0 1.34 0 0.68 0 0 Z " fill="#1A1A1A" transform="translate(353,251)"/>
<path d="M0 0 C4.59817569 4.75673347 5.11369763 13.26176321 5.125 19.625 C5.08375 20.73875 5.0425 21.8525 5 23 C5.99 23.33 6.98 23.66 8 24 C6.68 24.33 5.36 24.66 4 25 C2.35 17.74 0.7 10.48 -1 3 C-2.65 3 -4.3 3 -6 3 C-7.36532549 4.13701597 -7.36532549 4.13701597 -7.09765625 7.16015625 C-7.08605469 8.44792969 -7.07445312 9.73570312 -7.0625 11.0625 C-7.05347656 12.35285156 -7.04445312 13.64320313 -7.03515625 14.97265625 C-7.02355469 15.97167969 -7.01195312 16.97070312 -7 18 C-9 17 -9 17 -9.609375 15.25390625 C-10.03695015 12.78679766 -10.20468165 10.44133872 -10.25 7.9375 C-10.27578125 7.08027344 -10.3015625 6.22304688 -10.328125 5.33984375 C-10 3 -10 3 -8.703125 1.22265625 C-5.80216536 -0.8599134 -3.4250456 -0.48929223 0 0 Z " fill="#181818" transform="translate(149,255)"/>
<path d="M0 0 C0 0.33 0 0.66 0 1 C-0.67546875 1.09796875 -1.3509375 1.1959375 -2.046875 1.296875 C-7.67441002 2.19273164 -7.67441002 2.19273164 -12.5625 4.9375 C-15.92305657 9.75916812 -15.46349736 15.35526433 -15 21 C-13.44438009 24.73348779 -11.56812238 27.0712852 -8 29 C-5.32039695 29.52974878 -2.73137832 29.77238514 0 30 C0 30.33 0 30.66 0 31 C-7.20498442 32.34330218 -7.20498442 32.34330218 -10.75 30.8125 C-16.64556962 26.06329114 -16.64556962 26.06329114 -18 22 C-18.14554833 19.8783532 -18.22080412 17.75143294 -18.25 15.625 C-18.27578125 14.50351563 -18.3015625 13.38203125 -18.328125 12.2265625 C-17.78169311 6.85331558 -14.98417009 3.48614883 -11 0 C-6.94952424 -1.35015859 -4.2079832 -0.62084998 0 0 Z " fill="#252525" transform="translate(242,240)"/>
<path d="M0 0 C1.9375 1.1875 1.9375 1.1875 3 3 C3 4.65 3 6.3 3 8 C-1.62 8 -6.24 8 -11 8 C-10.67 6.02 -10.34 4.04 -10 2 C-6.30513897 -0.46324069 -4.36706908 -0.38991688 0 0 Z " fill="#292929" transform="translate(243,245)"/>
<path d="M0 0 C1.33359073 6.42548263 1.33359073 6.42548263 -0.125 8.9375 C-2.63647631 10.36066991 -4.15503228 10.42674516 -7 10 C-8.8125 8.875 -8.8125 8.875 -10 7 C-10.375 3.9375 -10.375 3.9375 -10 1 C-6.1496895 -1.56687367 -4.41430237 -0.83288724 0 0 Z " fill="#181818" transform="translate(327,233)"/>
<path d="M0 0 C2.6875 0.875 2.6875 0.875 5 2 C5.042721 3.66611905 5.04063832 5.33382885 5 7 C3.43904523 8.56095477 1.90999105 8.16961928 -0.25 8.1875 C-3.92457661 8.15819716 -6.6849318 7.71100294 -10 6 C-10.99 7.485 -10.99 7.485 -12 9 C-9.34771188 10.07525194 -6.71631546 11.09456151 -4 12 C-4 12.66 -4 13.32 -4 14 C-1.36 14 1.28 14 4 14 C4 14.33 4 14.66 4 15 C-2.63723109 15.54181478 -6.5494524 14.92439427 -12 11 C-13.9375 8.75 -13.9375 8.75 -15 7 C-12.6875 4.5 -12.6875 4.5 -10 2 C-9.01 2 -8.02 2 -7 2 C-6.38125 2.7115625 -6.38125 2.7115625 -5.75 3.4375 C-3.12475166 5.78147173 -0.41497058 5.67783296 3 6 C3 5.01 3 4.02 3 3 C0.03 2.505 0.03 2.505 -3 2 C-2.01 1.34 -1.02 0.68 0 0 Z " fill="#222222" transform="translate(269,258)"/>
<path d="M0 0 C1.37318644 4.22322975 2.72017833 8.45436871 4.0625 12.6875 C4.45244141 13.88568359 4.84238281 15.08386719 5.24414062 16.31835938 C5.79038086 18.05375977 5.79038086 18.05375977 6.34765625 19.82421875 C6.68804932 20.88729248 7.02844238 21.95036621 7.37915039 23.0456543 C8.02452729 26.11671441 7.85325069 28.00999687 7 31 C5.35530247 27.93745977 4.27152489 24.90508297 3.2734375 21.578125 C2.9640625 20.55332031 2.6546875 19.52851563 2.3359375 18.47265625 C2.01882812 17.40917969 1.70171875 16.34570312 1.375 15.25 C1.05015625 14.17105469 0.7253125 13.09210938 0.390625 11.98046875 C-0.40948893 9.32126657 -1.20623735 6.66110357 -2 4 C-3.65 4 -5.3 4 -7 4 C-7.33 4.66 -7.66 5.32 -8 6 C-8.66 6 -9.32 6 -10 6 C-10 4.68 -10 3.36 -10 2 C-3.375 0 -3.375 0 0 0 Z " fill="#1B1B1B" transform="translate(100,249)"/>
<path d="M0 0 C1.32 0.33 2.64 0.66 4 1 C4 1.66 4 2.32 4 3 C3.34 3 2.68 3 2 3 C-1.22517568 16.45070927 -1.22517568 16.45070927 -4 30 C-2.35 30 -0.7 30 1 30 C1 30.66 1 31.32 1 32 C-4.625 33.125 -4.625 33.125 -8 32 C-5.53195876 21.27452292 -2.90512869 10.61608198 0 0 Z " fill="#272727" transform="translate(368,254)"/>
<path d="M0 0 C5.83916369 -0.48659697 10.22183601 0.4486619 15 4 C17 7.25 17 7.25 18 10 C17.360625 10.226875 16.72125 10.45375 16.0625 10.6875 C13.72806339 11.85250896 13.72806339 11.85250896 13.25 14.625 C13.1675 15.40875 13.085 16.1925 13 17 C12.67 17 12.34 17 12 17 C11.67 14.03 11.34 11.06 11 8 C6.05 6.02 6.05 6.02 1 4 C1.99 3.67 2.98 3.34 4 3 C4.33 2.34 4.66 1.68 5 1 C3.35 1 1.7 1 0 1 C0 0.67 0 0.34 0 0 Z " fill="#E2E2E2" transform="translate(340,250)"/>
<path d="M0 0 C0.82951172 0.42345703 0.82951172 0.42345703 1.67578125 0.85546875 C3.28025093 1.64556895 4.90463335 2.39603764 6.54296875 3.11328125 C7.85201172 3.70689453 7.85201172 3.70689453 9.1875 4.3125 C10.06792969 4.70050781 10.94835937 5.08851563 11.85546875 5.48828125 C14 7 14 7 14.80078125 9.66796875 C14.89939453 10.82232422 14.89939453 10.82232422 15 12 C12 14 12 14 8.625 13.8125 C5.08866813 13.01987389 2.86339145 12.18965228 0 10 C-0.33 9.01 -0.66 8.02 -1 7 C3.75 7.75 3.75 7.75 6 10 C8.32275177 10.40047444 10.65739357 10.7397104 13 11 C10.29174507 8.00309094 7.49946391 6.73440626 3.83984375 5.16015625 C1.60078388 3.748265 0.97549706 2.42105229 0 0 Z " fill="#292929" transform="translate(287,255)"/>
<path d="M0 0 C0.66 0.33 1.32 0.66 2 1 C2.99 0.67 3.98 0.34 5 0 C5.0272415 1.41655793 5.04650467 2.83327045 5.0625 4.25 C5.07410156 5.03890625 5.08570313 5.8278125 5.09765625 6.640625 C5.00385306 8.90691002 4.63241063 10.8288895 4 13 C2.68 13 1.36 13 0 13 C0 13.66 0 14.32 0 15 C-0.66 15 -1.32 15 -2 15 C-2.27036084 9.72796354 -1.26305335 5.07476794 0 0 Z M-4 15 C-2 16 -2 16 -2 16 Z " fill="#F9F9F9" transform="translate(353,260)"/>
<path d="M0 0 C9.69128788 -0.57007576 9.69128788 -0.57007576 14 3 C16.64708405 5.3609128 17.88252019 6.95084 18.28125 10.51171875 C18.3101093 13.04051468 18.28389816 15.48680315 18 18 C17 19 17 19 15.23413086 19.11352539 C14.48526611 19.10828857 13.73640137 19.10305176 12.96484375 19.09765625 C12.15595703 19.09443359 11.34707031 19.09121094 10.51367188 19.08789062 C9.66353516 19.07951172 8.81339844 19.07113281 7.9375 19.0625 C7.08349609 19.05798828 6.22949219 19.05347656 5.34960938 19.04882812 C3.23304337 19.03700373 1.11651315 19.01906769 -1 19 C-1 18.67 -1 18.34 -1 18 C4.61 18 10.22 18 16 18 C15.690625 16.246875 15.38125 14.49375 15.0625 12.6875 C14.88847656 11.70136719 14.71445313 10.71523437 14.53515625 9.69921875 C14.04253153 6.91810787 14.04253153 6.91810787 13 4 C9.97717357 2.96452953 9.97717357 2.96452953 6.4375 2.3125 C5.23996094 2.06113281 4.04242188 1.80976563 2.80859375 1.55078125 C1.88175781 1.36902344 0.95492187 1.18726563 0 1 C0 0.67 0 0.34 0 0 Z " fill="#141414" transform="translate(236,239)"/>
<path d="M0 0 C0.33 0 0.66 0 1 0 C1.66 3.63 2.32 7.26 3 11 C4.65 11.33 6.3 11.66 8 12 C7.79375 10.741875 7.5875 9.48375 7.375 8.1875 C6.78664331 4.5985242 6.83382585 4.24926122 9 1 C9.66 4.96 10.32 8.92 11 13 C4.375 15 4.375 15 1 15 C0.63684334 13.0641649 0.28477269 11.12624752 -0.0625 9.1875 C-0.25972656 8.10855469 -0.45695313 7.02960938 -0.66015625 5.91796875 C-1 3 -1 3 0 0 Z " fill="#242424" transform="translate(134,269)"/>
<path d="M0 0 C0.70005804 3.26827607 1.38286244 6.53992176 2.0625 9.8125 C2.26166016 10.74126953 2.46082031 11.67003906 2.66601562 12.62695312 C2.84970703 13.51962891 3.03339844 14.41230469 3.22265625 15.33203125 C3.39547119 16.15421143 3.56828613 16.9763916 3.74633789 17.82348633 C4 20 4 20 3 23 C0.125 23.625 0.125 23.625 -3 24 C-3.66 23.34 -4.32 22.68 -5 22 C-4.625 19.875 -4.625 19.875 -4 18 C-4 18.99 -4 19.98 -4 21 C-2.35 21 -0.7 21 1 21 C-0.32 14.4 -1.64 7.8 -3 1 C-1 0 -1 0 0 0 Z " fill="#333333" transform="translate(159,256)"/>
<path d="M0 0 C4.95 0 9.9 0 15 0 C15 0.99 15 1.98 15 3 C14.071875 3.185625 14.071875 3.185625 13.125 3.375 C10.80879168 3.87197356 10.80879168 3.87197356 9 6 C2.53846154 5.53846154 2.53846154 5.53846154 0 3 C0 2.01 0 1.02 0 0 Z " fill="#E8E8E8" transform="translate(234,258)"/>
<path d="M0 0 C2.97 0.33 5.94 0.66 9 1 C8.67 2.32 8.34 3.64 8 5 C8 4.01 8 3.02 8 2 C6.35 2 4.7 2 3 2 C3.144375 2.85722656 3.28875 3.71445313 3.4375 4.59765625 C5.84132343 19.40454085 5.84132343 19.40454085 4 27 C3.67 27 3.34 27 3 27 C2.49578271 23.25055444 1.99735969 19.50036087 1.5 15.75 C1.35691406 14.68652344 1.21382812 13.62304688 1.06640625 12.52734375 C0.93105469 11.50253906 0.79570312 10.47773438 0.65625 9.421875 C0.53056641 8.47924805 0.40488281 7.53662109 0.27539062 6.56542969 C0 4 0 4 0 0 Z " fill="#363636" transform="translate(163,245)"/>
<path d="M0 0 C2.375 1.1875 2.375 1.1875 4.1875 4.375 C5.29603124 7.93396871 5.64472907 10.5012027 5.375 14.1875 C2.42316899 11.23566899 2.28836012 8.23238053 1.375 4.1875 C-0.29111905 4.144779 -1.95882885 4.14686168 -3.625 4.1875 C-5.28842837 5.85092837 -4.98548097 7.9700709 -5.1875 10.25 C-5.31318359 11.62865234 -5.31318359 11.62865234 -5.44140625 13.03515625 C-5.50199219 13.74542969 -5.56257813 14.45570313 -5.625 15.1875 C-8.06693159 11.52460262 -8.46293097 8.44555738 -7.625 4.1875 C-5.15658328 1.29592612 -3.80396982 0.27171213 0 0 Z " fill="#202020" transform="translate(128.625,257.8125)"/>
<path d="M0 0 C5.09388625 0.3918374 9.28402589 1.28402589 13 5 C13.04063832 6.66617115 13.042721 8.33388095 13 10 C12.319375 9.566875 11.63875 9.13375 10.9375 8.6875 C7.94769125 6.88224875 7.94769125 6.88224875 4.3125 5.5 C1 4 1 4 -1 1 C-0.67 0.67 -0.34 0.34 0 0 Z " fill="#F3F3F3" transform="translate(266,253)"/>
<path d="M0 0 C-0.33 0.99 -0.66 1.98 -1 3 C-2.2375 3.061875 -3.475 3.12375 -4.75 3.1875 C-8.29136227 3.60045037 -8.80785592 3.79268665 -11.375 6.5625 C-11.91125 7.366875 -12.4475 8.17125 -13 9 C-13.66 9 -14.32 9 -15 9 C-15.33 8.34 -15.66 7.68 -16 7 C-17.97888961 6.27306096 -19.97954558 5.60183749 -22 5 C-20.3125 3.9375 -20.3125 3.9375 -18 3 C-16.824375 3.309375 -16.824375 3.309375 -15.625 3.625 C-12.7944749 4.32869675 -12.7944749 4.32869675 -10.125 2.0625 C-6.43100006 -0.37553996 -4.33584745 -0.3468678 0 0 Z " fill="#313131" transform="translate(134,251)"/>
<path d="M0 0 C0.66 0 1.32 0 2 0 C1.67 1.65 1.34 3.3 1 5 C4.3899808 8.06273018 7.27315343 8.60550995 11.75 9.1875 C12.92046875 9.34605469 14.0909375 9.50460937 15.296875 9.66796875 C16.18890625 9.77753906 17.0809375 9.88710938 18 10 C16 12 16 12 12.3125 12.3125 C6.86322175 12.16415304 2.63789802 10.46990848 -1.4375 6.8125 C-1.953125 6.214375 -2.46875 5.61625 -3 5 C-1.125 1.125 -1.125 1.125 0 0 Z " fill="#181818" transform="translate(285,263)"/>
<path d="M0 0 C1.051875 -0.02126953 1.051875 -0.02126953 2.125 -0.04296875 C4 0.1875 4 0.1875 6 2.1875 C5.32453125 2.21328125 4.6490625 2.2390625 3.953125 2.265625 C-1.61357939 2.58947482 -1.61357939 2.58947482 -6.625 4.8125 C-8.48992744 8.03373831 -8.28106708 10.5336279 -8 14.1875 C-8.99 14.1875 -9.98 14.1875 -11 14.1875 C-11.59865471 8.20095291 -11.59865471 8.20095291 -9.95703125 5.421875 C-6.79553088 1.60211503 -4.8790075 0.04484382 0 0 Z " fill="#1D1D1D" transform="translate(296,240.8125)"/>
<path d="M0 0 C0.33 0 0.66 0 1 0 C2.0712828 6.02596573 2.09945415 11.88909517 2 18 C-0.97 18 -3.94 18 -7 18 C-7 15.36 -7 12.72 -7 10 C-6.67 10 -6.34 10 -6 10 C-6 11.98 -6 13.96 -6 16 C-4.02 16 -2.04 16 0 16 C0 10.72 0 5.44 0 0 Z " fill="#0A0A0A" transform="translate(210,255)"/>
<path d="M0 0 C0.556875 0.391875 1.11375 0.78375 1.6875 1.1875 C0.72378506 3.59678735 0.03539837 4.94757009 -2.125 6.4375 C-4.63571365 7.29831611 -6.67598649 7.33397297 -9.3125 7.1875 C-9.3125 6.1975 -9.3125 5.2075 -9.3125 4.1875 C-8.6525 4.1875 -7.9925 4.1875 -7.3125 4.1875 C-7.3125 3.5275 -7.3125 2.8675 -7.3125 2.1875 C-3.09973404 -1.08909574 -3.09973404 -1.08909574 0 0 Z " fill="#E9E9E9" transform="translate(249.3125,262.8125)"/>
<path d="M0 0 C0.33 0 0.66 0 1 0 C1.43630637 8.28982104 -0.22032737 15.95969329 -2 24 C-2.33 24 -2.66 24 -3 24 C-3.45636453 15.5657073 -2.17423358 8.14043404 0 0 Z " fill="#1C1C1C" transform="translate(316,249)"/>
<path d="M0 0 C6.93 0 13.86 0 21 0 C21 0.33 21 0.66 21 1 C12.585 1.495 12.585 1.495 4 2 C4.95934081 5.83736322 5.23609263 6.59660228 8 9 C7.01 9.495 7.01 9.495 6 10 C2.08314366 6.48487252 1.07597185 5.37985925 0 0 Z " fill="#323232" transform="translate(231,256)"/>
<path d="M0 0 C-0.81855469 0.51046875 -1.63710937 1.0209375 -2.48046875 1.546875 C-5.33439677 3.82516569 -5.33439677 3.82516569 -5.48828125 7.453125 C-5.40126953 9.33257812 -5.40126953 9.33257812 -5.3125 11.25 C-5.26738281 12.51328125 -5.22226563 13.7765625 -5.17578125 15.078125 C-5.11777344 16.04234375 -5.05976563 17.0065625 -5 18 C-7 17 -7 17 -7.609375 15.25390625 C-8.03695015 12.78679766 -8.20468165 10.44133872 -8.25 7.9375 C-8.27578125 7.08027344 -8.3015625 6.22304688 -8.328125 5.33984375 C-8 3 -8 3 -6.65234375 1.203125 C-4.39243662 -0.44238657 -2.72515501 -0.22095851 0 0 Z " fill="#1F1F1F" transform="translate(147,255)"/>
<path d="M0 0 C1.65087847 0.59024148 3.29562407 1.19766006 4.9375 1.8125 C6.31228516 2.31716797 6.31228516 2.31716797 7.71484375 2.83203125 C10 4 10 4 11 7 C4.4704 7.3696 4.4704 7.3696 2.25 5.625 C1.8375 5.08875 1.425 4.5525 1 4 C0.01 3.34 -0.98 2.68 -2 2 C-1.34 1.34 -0.68 0.68 0 0 Z " fill="#EFEFEF" transform="translate(289,259)"/>
<path d="M0 0 C7.88264059 0.75794621 7.88264059 0.75794621 11 4 C11 4.99 11 5.98 11 7 C6.87248551 6.39301257 3.6678852 4.96189209 0 3 C0 2.01 0 1.02 0 0 Z " fill="#E1E1E1" transform="translate(295,249)"/>
<path d="M0 0 C0.66 0.66 1.32 1.32 2 2 C1.9765625 4.1640625 1.9765625 4.1640625 1.625 6.625 C1.51414062 7.44226563 1.40328125 8.25953125 1.2890625 9.1015625 C1.19367188 9.72804688 1.09828125 10.35453125 1 11 C2.65 11 4.3 11 6 11 C6 11.66 6 12.32 6 13 C0.375 14.125 0.375 14.125 -3 13 C-2.01 8.71 -1.02 4.42 0 0 Z " fill="#303030" transform="translate(363,273)"/>
<path d="M0 0 C2.00720923 0.28674418 4.0085944 0.61866701 6 1 C5.67 2.65 5.34 4.3 5 6 C1.25 7.125 1.25 7.125 -1 6 C-1.042721 4.33388095 -1.04063832 2.66617115 -1 1 C-0.67 0.67 -0.34 0.34 0 0 Z " fill="#EDEDED" transform="translate(320,234)"/>
<path d="M0 0 C0.99 0.495 0.99 0.495 2 1 C2.41064453 2.85766602 2.41064453 2.85766602 2.6328125 5.25390625 C2.71660156 6.10791016 2.80039063 6.96191406 2.88671875 7.84179688 C2.96535156 8.73962891 3.04398438 9.63746094 3.125 10.5625 C3.21136719 11.46419922 3.29773438 12.36589844 3.38671875 13.29492188 C3.59951659 15.52929918 3.80354467 17.76413615 4 20 C3.67 19.34 3.34 18.68 3 18 C2.34 18 1.68 18 1 18 C0.10395632 11.95170514 -0.11269443 6.1105424 0 0 Z " fill="#212121" transform="translate(167,267)"/>
<path d="M0 0 C0.680625 0.309375 1.36125 0.61875 2.0625 0.9375 C5.36965912 2.13370649 8.51545878 2.59005397 12 3 C11.67 3.66 11.34 4.32 11 5 C8.03 4.67 5.06 4.34 2 4 C2 6.31 2 8.62 2 11 C-0.32590854 7.36576791 -0.16265833 4.22911669 0 0 Z " fill="#0D0D0D" transform="translate(175,271)"/>
<path d="M0 0 C2.97 0.99 5.94 1.98 9 3 C9 3.99 9 4.98 9 6 C2.375 6.25 2.375 6.25 -1 4 C-0.67 2.68 -0.34 1.36 0 0 Z " fill="#ECECEC" transform="translate(263,258)"/>
<path d="M0 0 C6.52307692 0.61538462 6.52307692 0.61538462 8.9375 2.5625 C9.288125 3.036875 9.63875 3.51125 10 4 C9.67 4.66 9.34 5.32 9 6 C1.25 4.125 1.25 4.125 -1 3 C-0.67 2.01 -0.34 1.02 0 0 Z " fill="#E5E5E5" transform="translate(267,247)"/>
<path d="M0 0 C0 0.33 0 0.66 0 1 C-0.67546875 1.09796875 -1.3509375 1.1959375 -2.046875 1.296875 C-7.67441002 2.19273164 -7.67441002 2.19273164 -12.5625 4.9375 C-14.16886054 7.03488583 -14.16886054 7.03488583 -15 10 C-15.99 9.67 -16.98 9.34 -18 9 C-13.18173523 0.32712341 -9.48775132 -1.39983216 0 0 Z " fill="#272727" transform="translate(242,240)"/>
<path d="M0 0 C2 1 2 1 3.125 4.3125 C4 8 4 8 4 12 C-0.43076923 14.09230769 -0.43076923 14.09230769 -3.3125 13.625 C-3.869375 13.41875 -4.42625 13.2125 -5 13 C-2 11 -2 11 2 11 C1.67 10.113125 1.34 9.22625 1 8.3125 C0.08777857 5.29076653 -0.18330958 3.11626294 0 0 Z " fill="#191919" transform="translate(107,278)"/>
<path d="M0 0 C0.680625 0.309375 1.36125 0.61875 2.0625 0.9375 C5.36965912 2.13370649 8.51545878 2.59005397 12 3 C12 3.33 12 3.66 12 4 C10.88625 4.309375 9.7725 4.61875 8.625 4.9375 C5.2054845 5.82326483 5.2054845 5.82326483 3 7 C0.375 5.5625 0.375 5.5625 -2 4 C-1.34 2.68 -0.68 1.36 0 0 Z " fill="#E1E1E1" transform="translate(259,263)"/>
<path d="M0 0 C0.625 2.375 0.625 2.375 1 5 C0.34 5.66 -0.32 6.32 -1 7 C-1.33 6.01 -1.66 5.02 -2 4 C-3.65 4 -5.3 4 -7 4 C-7.33 4.66 -7.66 5.32 -8 6 C-8.66 6 -9.32 6 -10 6 C-10 4.68 -10 3.36 -10 2 C-3.375 0 -3.375 0 0 0 Z " fill="#222222" transform="translate(100,249)"/>
<path d="M0 0 C0.84820312 0.16371094 1.69640625 0.32742188 2.5703125 0.49609375 C6.0645531 1.00948445 9.34627574 1.09850739 12.875 1.0625 C14.02742188 1.05347656 15.17984375 1.04445313 16.3671875 1.03515625 C17.67042969 1.01775391 17.67042969 1.01775391 19 1 C18.67 1.66 18.34 2.32 18 3 C12.60745798 4.79751401 7.67492109 4.70522993 2.4375 2.5 C1.633125 2.005 0.82875 1.51 0 1 C0 0.67 0 0.34 0 0 Z " fill="#161616" transform="translate(334,278)"/>
<path d="M0 0 C0.99 0 1.98 0 3 0 C2.49593201 4.4105949 1.13906582 6.86093418 -2 10 C-5.25 11.3125 -5.25 11.3125 -8 12 C-8.33 11.01 -8.66 10.02 -9 9 C-7.88625 8.62875 -6.7725 8.2575 -5.625 7.875 C-2.38621238 6.5205979 -2.10727559 6.23787197 -0.5625 2.8125 C-0.376875 1.884375 -0.19125 0.95625 0 0 Z " fill="#333333" transform="translate(194,264)"/>
<path d="M0 0 C0 0.66 0 1.32 0 2 C-0.969375 2.28875 -1.93875 2.5775 -2.9375 2.875 C-6.18878552 4.63607484 -6.18878552 4.63607484 -6.62109375 7.42578125 C-6.85409758 9.96014598 -6.99045192 12.4554377 -7 15 C-9 13 -9 13 -9.4375 9.1875 C-9.35408486 5.66481457 -9.00435798 5.00581064 -6.75 2 C-4 0 -4 0 0 0 Z " fill="#0A0A0A" transform="translate(182,249)"/>
<path d="M0 0 C0.66 0.33 1.32 0.66 2 1 C1.01 2.485 1.01 2.485 0 4 C-0.45772063 6.73872955 -0.45772063 6.73872955 -0.625 9.6875 C-0.69976562 10.68136719 -0.77453125 11.67523438 -0.8515625 12.69921875 C-0.90054688 13.45847656 -0.94953125 14.21773438 -1 15 C-1.99 15 -2.98 15 -4 15 C-4.63019694 5.98468271 -4.63019694 5.98468271 -2 1.875 C-1.34 1.25625 -0.68 0.6375 0 0 Z " fill="#4A4A4A" transform="translate(213,247)"/>
<path d="M0 0 C2.31 0 4.62 0 7 0 C7.33 1.32 7.66 2.64 8 4 C4.7 4 1.4 4 -2 4 C-1.34 2.68 -0.68 1.36 0 0 Z " fill="#F2F2F2" transform="translate(236,247)"/>
<path d="M0 0 C0 1.65 0 3.3 0 5 C-2.31 5.33 -4.62 5.66 -7 6 C-7.33 5.01 -7.66 4.02 -8 3 C-5.53387212 -0.1151089 -3.89156016 -0.31553191 0 0 Z " fill="#EBEBEB" transform="translate(219,242)"/>
<path d="M0 0 C3.85998276 0.52161929 5.30946515 1.30946515 8 4 C10.60611077 4.72197162 10.60611077 4.72197162 13 5 C13 5.66 13 6.32 13 7 C8.27132978 6.53640488 4.81857204 5.9200845 1 3 C0.67 2.01 0.34 1.02 0 0 Z " fill="#313131" transform="translate(286,262)"/>
<path d="M0 0 C-0.598125 0.28875 -1.19625 0.5775 -1.8125 0.875 C-5.97702582 2.95202506 -5.97702582 2.95202506 -8 7 C-5.03 7 -2.06 7 1 7 C1 7.33 1 7.66 1 8 C-2.63 8 -6.26 8 -10 8 C-9.6875 5.125 -9.6875 5.125 -9 2 C-5.5647952 -0.29013653 -4.014669 -0.17842973 0 0 Z " fill="#080808" transform="translate(242,245)"/>
<path d="M0 0 C2.39073445 3.82517513 2.55966552 7.59665524 3 12 C1.68 12.33 0.36 12.66 -1 13 C-1.02708567 11.39592672 -1.04643483 9.7917215 -1.0625 8.1875 C-1.07410156 7.29417969 -1.08570313 6.40085937 -1.09765625 5.48046875 C-1 3 -1 3 0 0 Z " fill="#343434" transform="translate(142,270)"/>
<path d="M0 0 C0.50227431 5.27388024 -0.67105798 7.91015695 -4 12 C-4.99 12.33 -5.98 12.66 -7 13 C-7.66 12.34 -8.32 11.68 -9 11 C-8.195625 10.649375 -7.39125 10.29875 -6.5625 9.9375 C-3.60925719 8.15517045 -3.60925719 8.15517045 -3.3125 4.375 C-3.1578125 2.704375 -3.1578125 2.704375 -3 1 C-1 0 -1 0 0 0 Z " fill="#393939" transform="translate(310,261)"/>
<path d="M0 0 C0.99 0.33 1.98 0.66 3 1 C3.33 5.95 3.66 10.9 4 16 C0.41624224 12.41624224 0.07612239 6.86499859 -0.125 1.9375 C-0.08375 1.298125 -0.0425 0.65875 0 0 Z " fill="#111111" transform="translate(111,256)"/>
<path d="M0 0 C0.99 0.33 1.98 0.66 3 1 C2.2884375 1.6496875 2.2884375 1.6496875 1.5625 2.3125 C-0.23686957 4.02309613 -0.23686957 4.02309613 -1 7 C-1.99 7 -2.98 7 -4 7 C-4.45375 6.525625 -4.9075 6.05125 -5.375 5.5625 C-7.46366683 3.55416651 -9.1783448 3.38130476 -12 3 C-12 2.67 -12 2.34 -12 2 C-5.375 1.75 -5.375 1.75 -2 4 C-1.34 2.68 -0.68 1.36 0 0 Z " fill="#0E0E0E" transform="translate(140,250)"/>
<path d="M0 0 C5.26053037 -0.31563182 8.44573816 0.33409063 13 3 C13 3.99 13 4.98 13 6 C12.175 5.525625 11.35 5.05125 10.5 4.5625 C6.47204099 2.76430401 3.36826421 2.3765745 -1 2 C-0.67 1.34 -0.34 0.68 0 0 Z " fill="#0F0F0F" transform="translate(267,239)"/>
<path d="M0 0 C0.33 0 0.66 0 1 0 C1.27377394 5.38422078 1.37535297 8.54453408 -2 13 C-3 14 -3 14 -5.5625 14.0625 C-6.366875 14.041875 -7.17125 14.02125 -8 14 C-6.8553125 13.319375 -6.8553125 13.319375 -5.6875 12.625 C-1.93576128 8.96051102 -1.17523203 5.00667954 0 0 Z " fill="#0F0F0F" transform="translate(351,261)"/>
<path d="M0 0 C0.33 0.66 0.66 1.32 1 2 C3.62616876 3.17486497 6.27044585 4.09014862 9 5 C9 5.66 9 6.32 9 7 C11.64 7 14.28 7 17 7 C17 7.33 17 7.66 17 8 C10.42527587 8.53671217 6.34882112 8.01161584 1 4 C0.0625 1.75 0.0625 1.75 0 0 Z " fill="#353535" transform="translate(256,265)"/>
<path d="M0 0 C0.66 0 1.32 0 2 0 C2.33 4.62 2.66 9.24 3 14 C2.01 14.495 2.01 14.495 1 15 C-0.09506492 11.71480525 -0.09960608 9.26336585 -0.0625 5.8125 C-0.05347656 4.72582031 -0.04445312 3.63914063 -0.03515625 2.51953125 C-0.02355469 1.68808594 -0.01195312 0.85664063 0 0 Z " fill="#171717" transform="translate(224,250)"/>
<path d="M0 0 C2.31 0 4.62 0 7 0 C6.67 2.97 6.34 5.94 6 9 C3.69 9 1.38 9 -1 9 C-0.67 8.34 -0.34 7.68 0 7 C2.0625 6.375 2.0625 6.375 4 6 C4.33 4.35 4.66 2.7 5 1 C3.35 1 1.7 1 0 1 C0 0.67 0 0.34 0 0 Z " fill="#0E0E0E" transform="translate(215,240)"/>
<path d="M0 0 C-0.33 0.66 -0.66 1.32 -1 2 C-2.2065625 2.37125 -2.2065625 2.37125 -3.4375 2.75 C-6.32371184 3.80955402 -6.32371184 3.80955402 -7.3125 7.125 C-7.6528125 8.548125 -7.6528125 8.548125 -8 10 C-8.66 9.01 -9.32 8.02 -10 7 C-9.23224622 3.58776098 -8.34845598 2.26804306 -5.5625 0.125 C-3 -1 -3 -1 0 0 Z " fill="#232323" transform="translate(267,240)"/>
<path d="M0 0 C2.05078125 0.03255208 4.1015625 0.06510417 6.15234375 0.09765625 C5.16234375 0.75765625 4.17234375 1.41765625 3.15234375 2.09765625 C3.15234375 2.75765625 3.15234375 3.41765625 3.15234375 4.09765625 C1.50234375 4.75765625 -0.14765625 5.41765625 -1.84765625 6.09765625 C-2.22984392 4.44150968 -2.56160727 2.77308601 -2.84765625 1.09765625 C-1.84765625 0.09765625 -1.84765625 0.09765625 0 0 Z " fill="#E5E5E5" transform="translate(293.84765625,242.90234375)"/>
<path d="M0 0 C0.99 0.33 1.98 0.66 3 1 C2.34 3.31 1.68 5.62 1 8 C2.98 8 4.96 8 7 8 C4 10 4 10 1.3125 9.625 C0.549375 9.41875 -0.21375 9.2125 -1 9 C-0.67 6.03 -0.34 3.06 0 0 Z " fill="#2E2E2E" transform="translate(381,282)"/>
<path d="M0 0 C0.99 0.33 1.98 0.66 3 1 C3.144375 1.639375 3.28875 2.27875 3.4375 2.9375 C3.80104993 5.20311706 3.80104993 5.20311706 6.0625 6.25 C6.701875 6.4975 7.34125 6.745 8 7 C5.36 7.33 2.72 7.66 0 8 C0 5.36 0 2.72 0 0 Z " fill="#444444" transform="translate(312,269)"/>
<path d="M0 0 C0.66 0.66 1.32 1.32 2 2 C0.34116421 4.28804937 -0.62283307 5.56463437 -3 7 C-6.70298665 7.44207004 -10.28831877 7.29251428 -14 7 C-14 6.67 -14 6.34 -14 6 C-13.32453125 5.90203125 -12.6490625 5.8040625 -11.953125 5.703125 C-5.04032595 4.62920914 -5.04032595 4.62920914 0 0 Z " fill="#0F0F0F" transform="translate(279,265)"/>
<path d="M0 0 C8.2173913 1.82608696 8.2173913 1.82608696 11 6 C3.25531915 5.25531915 3.25531915 5.25531915 0 2 C0 1.34 0 0.68 0 0 Z " fill="#3B3B3B" transform="translate(336,270)"/>
<path d="M0 0 C1.98 0.99 1.98 0.99 4 2 C4.66 1.34 5.32 0.68 6 0 C6 1.98 6 3.96 6 6 C4.68 6.33 3.36 6.66 2 7 C2 6.34 2 5.68 2 5 C1.34 5 0.68 5 0 5 C0 3.35 0 1.7 0 0 Z " fill="#DFDFDF" transform="translate(274,259)"/>
<path d="M0 0 C0.66 1.32 1.32 2.64 2 4 C-1.75 9.875 -1.75 9.875 -4 11 C-4.66 10.34 -5.32 9.68 -6 9 C-4.7934375 7.88625 -4.7934375 7.88625 -3.5625 6.75 C-1.23011409 4.24695171 -0.36465606 3.2819045 0 0 Z " fill="#242424" transform="translate(357,269)"/>
<path d="M0 0 C4.63714903 1.46436285 4.63714903 1.46436285 6.3125 3.9375 C7 6 7 6 7 9 C6.01 8.67 5.02 8.34 4 8 C3.67 6.35 3.34 4.7 3 3 C2.01 2.67 1.02 2.34 0 2 C0 1.34 0 0.68 0 0 Z " fill="#2D2D2D" transform="translate(182,249)"/>
<path d="M0 0 C1.06671952 3.20015856 0.94845472 4.88544294 0.5625 8.1875 C0.46066406 9.08855469 0.35882813 9.98960937 0.25390625 10.91796875 C0.17011719 11.60503906 0.08632812 12.29210937 0 13 C-2.71232939 8.93150591 -2.30699887 6.83523216 -2 2 C-1.34 1.34 -0.68 0.68 0 0 Z " fill="#0B0B0B" transform="translate(123,260)"/>
<path d="M0 0 C0.99 0 1.98 0 3 0 C3 0.66 3 1.32 3 2 C-3.4 6.06153846 -3.4 6.06153846 -6.4375 5.75 C-6.953125 5.5025 -7.46875 5.255 -8 5 C-8 4.67 -8 4.34 -8 4 C-6.576875 3.566875 -6.576875 3.566875 -5.125 3.125 C-1.94788422 2.23174891 -1.94788422 2.23174891 0 0 Z " fill="#111111" transform="translate(246,260)"/>
<path d="M0 0 C1.9375 1.5 1.9375 1.5 2.6875 5.125 C2.77 6.23875 2.8525 7.3525 2.9375 8.5 C1.9475 8.17 0.9575 7.84 -0.0625 7.5 C-0.165625 6.71625 -0.26875 5.9325 -0.375 5.125 C-0.83845022 2.16954819 -0.83845022 2.16954819 -4.0625 0.5 C-2.0625 -0.5 -2.0625 -0.5 0 0 Z " fill="#323232" transform="translate(149.0625,255.5)"/>
<path d="M0 0 C5.39449293 -0.27429625 8.51925805 -0.36055646 13 3 C9.57056481 4.18771723 7.62215325 3.80226223 4.25 2.5625 C3.45078125 2.27503906 2.6515625 1.98757812 1.828125 1.69140625 C1.22484375 1.46324219 0.6215625 1.23507813 0 1 C0 0.67 0 0.34 0 0 Z " fill="#2E2E2E" transform="translate(179,242)"/>
<path d="M0 0 C2.97 0 5.94 0 9 0 C8.67 1.32 8.34 2.64 8 4 C5.125 3.6875 5.125 3.6875 2 3 C1.34 2.01 0.68 1.02 0 0 Z " fill="#4C4C4C" transform="translate(201,240)"/>
<path d="M0 0 C-1.175625 0.86625 -1.175625 0.86625 -2.375 1.75 C-4.80047244 3.82897637 -5.85694417 5.09040333 -7 8 C-7.6875 5.6875 -7.6875 5.6875 -8 3 C-5.90994325 -0.36731366 -3.75103888 -0.30413829 0 0 Z " fill="#0E0E0E" transform="translate(147,255)"/>
<path d="M0 0 C3 1 3 1 5 4 C5.125 6.6875 5.125 6.6875 5 9 C2.1997768 7.5998884 1.43223902 5.73427449 0 3 C0 2.01 0 1.02 0 0 Z " fill="#242424" transform="translate(153,249)"/>
<path d="M0 0 C0.33 0 0.66 0 1 0 C1.33 3.96 1.66 7.92 2 12 C1.34 12 0.68 12 0 12 C-0.76173392 7.6835078 -1.16063604 4.25566547 0 0 Z " fill="#353535" transform="translate(177,277)"/>
<path d="M0 0 C1.8830622 3.26397448 2.67342446 6.24438133 3 10 C2.34 10.66 1.68 11.32 1 12 C0.63597631 10.56496445 0.28413409 9.12683494 -0.0625 7.6875 C-0.25972656 6.88699219 -0.45695312 6.08648437 -0.66015625 5.26171875 C-1 3 -1 3 0 0 Z " fill="#2C2C2C" transform="translate(105,268)"/>
<path d="M0 0 C0.99 0 1.98 0 3 0 C2.34 1.65 1.68 3.3 1 5 C1.66 5 2.32 5 3 5 C2.67 5.99 2.34 6.98 2 8 C1.01 7.34 0.02 6.68 -1 6 C-0.67 4.02 -0.34 2.04 0 0 Z " fill="#252525" transform="translate(265,245)"/>
<path d="M0 0 C5.66153846 2.33846154 5.66153846 2.33846154 7.375 5.6875 C7.684375 6.8321875 7.684375 6.8321875 8 8 C5 7 5 7 3 4 C2.01 3.67 1.02 3.34 0 3 C0 2.01 0 1.02 0 0 Z " fill="#242424" transform="translate(387,258)"/>
<path d="M0 0 C2.31 0.33 4.62 0.66 7 1 C7.33 2.32 7.66 3.64 8 5 C5.36 4.01 2.72 3.02 0 2 C0 1.34 0 0.68 0 0 Z " fill="#2C2C2C" transform="translate(345,248)"/>
<path d="M0 0 C1.2065625 0.0309375 1.2065625 0.0309375 2.4375 0.0625 C1.4375 3.0625 1.4375 3.0625 -0.5625 4.0625 C-1.5525 4.0625 -2.5425 4.0625 -3.5625 4.0625 C-3.5625 0.08689024 -3.5625 0.08689024 0 0 Z " fill="#FAFAFA" transform="translate(342.5625,250.9375)"/>
<path d="M0 0 C0.99 0.33 1.98 0.66 3 1 C3.125 3.375 3.125 3.375 3 6 C2.34 6.66 1.68 7.32 1 8 C0.01 7.67 -0.98 7.34 -2 7 C-1.34 6.34 -0.68 5.68 0 5 C0.16687448 2.41645782 0.16687448 2.41645782 0 0 Z " fill="#111111" transform="translate(325,234)"/>
<path d="M0 0 C0 1.65 0 3.3 0 5 C-1.65 5 -3.3 5 -5 5 C-5.33 4.01 -5.66 3.02 -6 2 C-1.125 0 -1.125 0 0 0 Z " fill="#E7E7E7" transform="translate(124,280)"/>
<path d="M0 0 C2.1519437 3.22791555 2.20086443 4.28400809 2 8 C1.01 8.495 1.01 8.495 0 9 C-1.125 2.25 -1.125 2.25 0 0 Z " fill="#2C2C2C" transform="translate(123,271)"/>
<path d="M0 0 C1.85776765 3.13498292 2.20140476 5.37471432 2 9 C0.35 8.67 -1.3 8.34 -3 8 C-2.01 7.67 -1.02 7.34 0 7 C0 4.69 0 2.38 0 0 Z " fill="#303030" transform="translate(320,269)"/>
<path d="M0 0 C0 0.66 0 1.32 0 2 C-3.465 3.485 -3.465 3.485 -7 5 C-7 4.01 -7 3.02 -7 2 C-4 0 -4 0 0 0 Z " fill="#1B1B1B" transform="translate(182,249)"/>
<path d="M0 0 C0.66 0.33 1.32 0.66 2 1 C0.15794162 3.54379491 -1.72478134 5.83312509 -4 8 C-4.66 7.34 -5.32 6.68 -6 6 C-4 4 -2 2 0 0 Z " fill="#D6D6D6" transform="translate(125,254)"/>
<path d="M0 0 C0.33 0.99 0.66 1.98 1 3 C0.01 3 -0.98 3 -2 3 C-2.33 3.66 -2.66 4.32 -3 5 C-3.66 5 -4.32 5 -5 5 C-5 3.68 -5 2.36 -5 1 C-2 0 -2 0 0 0 Z " fill="#404040" transform="translate(95,250)"/>
</svg>
